<svg width="153" height="51" viewBox="0 0 153 51" fill="none" xmlns="http://www.w3.org/2000/svg">
<rect width="153" height="51" fill="#1E1E1E"/>
<path d="M34.496 33.92C34.112 33.92 33.92 34.112 33.92 34.496V36.608C33.92 40.1493 35.264 41.92 37.952 41.92C39.0613 41.92 40 41.536 40.768 40.768C41.536 39.9573 41.92 38.9973 41.92 37.888C41.92 35.2427 40.1707 33.92 36.672 33.92H34.496ZM27.84 27.264V20.736C27.84 20.352 27.648 20.16 27.264 20.16H20.672C20.3307 20.16 20.16 20.352 20.16 20.736V27.264C20.16 27.648 20.3307 27.84 20.672 27.84H27.264C27.648 27.84 27.84 27.648 27.84 27.264ZM14.08 13.504V11.392C14.08 7.85067 12.736 6.08 10.048 6.08C8.93867 6.08 8 6.48533 7.232 7.296C6.464 8.064 6.08 9.00267 6.08 10.112C6.08 12.7573 7.82933 14.08 11.328 14.08H13.504C13.888 14.08 14.08 13.888 14.08 13.504ZM14.08 36.608V34.496C14.08 34.112 13.888 33.92 13.504 33.92H11.328C7.82933 33.92 6.08 35.2427 6.08 37.888C6.08 38.9973 6.464 39.9573 7.232 40.768C8 41.536 8.93867 41.92 10.048 41.92C12.736 41.92 14.08 40.1493 14.08 36.608ZM33.92 11.392V13.504C33.92 13.888 34.112 14.08 34.496 14.08H36.672C40.1707 14.08 41.92 12.7573 41.92 10.112C41.92 9.00267 41.536 8.064 40.768 7.296C40 6.48533 39.0613 6.08 37.952 6.08C35.264 6.08 33.92 7.85067 33.92 11.392ZM34.496 20.16C34.112 20.16 33.92 20.352 33.92 20.736V27.264C33.92 27.648 34.112 27.84 34.496 27.84H36.672C40.2133 27.84 42.9867 28.8 44.992 30.72C46.9973 32.5973 48 34.9867 48 37.888C48 40.6613 47.0187 43.0507 45.056 45.056C43.0933 47.0187 40.7253 48 37.952 48C35.0507 48 32.64 46.9973 30.72 44.992C28.8 42.944 27.84 40.1493 27.84 36.608V34.496C27.84 34.112 27.648 33.92 27.264 33.92H20.672C20.3307 33.92 20.16 34.112 20.16 34.496V36.608C20.16 40.1493 19.2 42.944 17.28 44.992C15.36 46.9973 12.9493 48 10.048 48C7.27467 48 4.90667 47.0187 2.944 45.056C0.981333 43.0507 0 40.6613 0 37.888C0 34.9867 1.00267 32.5973 3.008 30.72C5.01333 28.8 7.78667 27.84 11.328 27.84H13.504C13.888 27.84 14.08 27.648 14.08 27.264V20.736C14.08 20.352 13.888 20.16 13.504 20.16H11.328C7.78667 20.16 5.01333 19.2213 3.008 17.344C1.00267 15.424 0 13.0133 0 10.112C0 7.33867 0.981333 4.97067 2.944 3.008C4.90667 1.00267 7.27467 0 10.048 0C12.9493 0 15.36 1.024 17.28 3.072C19.2 5.07733 20.16 7.85067 20.16 11.392V13.504C20.16 13.888 20.3307 14.08 20.672 14.08H27.264C27.648 14.08 27.84 13.888 27.84 13.504V11.392C27.84 7.85067 28.8 5.07733 30.72 3.072C32.64 1.024 35.0507 0 37.952 0C40.7253 0 43.0933 1.00267 45.056 3.008C47.0187 4.97067 48 7.33867 48 10.112C48 13.0133 46.9973 15.424 44.992 17.344C42.9867 19.2213 40.2133 20.16 36.672 20.16H34.496Z" fill="white"/>
<path d="M87.616 33.92C87.232 33.92 87.04 34.112 87.04 34.496V36.608C87.04 40.1493 88.384 41.92 91.072 41.92C92.1813 41.92 93.12 41.536 93.888 40.768C94.656 39.9573 95.04 38.9973 95.04 37.888C95.04 35.2427 93.2907 33.92 89.792 33.92H87.616ZM80.96 27.264V20.736C80.96 20.352 80.768 20.16 80.384 20.16H73.792C73.4507 20.16 73.28 20.352 73.28 20.736V27.264C73.28 27.648 73.4507 27.84 73.792 27.84H80.384C80.768 27.84 80.96 27.648 80.96 27.264ZM67.2 13.504V11.392C67.2 7.85067 65.856 6.08 63.168 6.08C62.0587 6.08 61.12 6.48533 60.352 7.296C59.584 8.064 59.2 9.00267 59.2 10.112C59.2 12.7573 60.9493 14.08 64.448 14.08H66.624C67.008 14.08 67.2 13.888 67.2 13.504ZM67.2 36.608V34.496C67.2 34.112 67.008 33.92 66.624 33.92H64.448C60.9493 33.92 59.2 35.2427 59.2 37.888C59.2 38.9973 59.584 39.9573 60.352 40.768C61.12 41.536 62.0587 41.92 63.168 41.92C65.856 41.92 67.2 40.1493 67.2 36.608ZM87.04 11.392V13.504C87.04 13.888 87.232 14.08 87.616 14.08H89.792C93.2907 14.08 95.04 12.7573 95.04 10.112C95.04 9.00267 94.656 8.064 93.888 7.296C93.12 6.48533 92.1813 6.08 91.072 6.08C88.384 6.08 87.04 7.85067 87.04 11.392ZM87.616 20.16C87.232 20.16 87.04 20.352 87.04 20.736V27.264C87.04 27.648 87.232 27.84 87.616 27.84H89.792C93.3333 27.84 96.1067 28.8 98.112 30.72C100.117 32.5973 101.12 34.9867 101.12 37.888C101.12 40.6613 100.139 43.0507 98.176 45.056C96.2133 47.0187 93.8453 48 91.072 48C88.1707 48 85.76 46.9973 83.84 44.992C81.92 42.944 80.96 40.1493 80.96 36.608V34.496C80.96 34.112 80.768 33.92 80.384 33.92H73.792C73.4507 33.92 73.28 34.112 73.28 34.496V36.608C73.28 40.1493 72.32 42.944 70.4 44.992C68.48 46.9973 66.0693 48 63.168 48C60.3947 48 58.0267 47.0187 56.064 45.056C54.1013 43.0507 53.12 40.6613 53.12 37.888C53.12 34.9867 54.1227 32.5973 56.128 30.72C58.1333 28.8 60.9067 27.84 64.448 27.84H66.624C67.008 27.84 67.2 27.648 67.2 27.264V20.736C67.2 20.352 67.008 20.16 66.624 20.16H64.448C60.9067 20.16 58.1333 19.2213 56.128 17.344C54.1227 15.424 53.12 13.0133 53.12 10.112C53.12 7.33867 54.1013 4.97067 56.064 3.008C58.0267 1.00267 60.3947 0 63.168 0C66.0693 0 68.48 1.024 70.4 3.072C72.32 5.07733 73.28 7.85067 73.28 11.392V13.504C73.28 13.888 73.4507 14.08 73.792 14.08H80.384C80.768 14.08 80.96 13.888 80.96 13.504V11.392C80.96 7.85067 81.92 5.07733 83.84 3.072C85.76 1.024 88.1707 0 91.072 0C93.8453 0 96.2133 1.00267 98.176 3.008C100.139 4.97067 101.12 7.33867 101.12 10.112C101.12 13.0133 100.117 15.424 98.112 17.344C96.1067 19.2213 93.3333 20.16 89.792 20.16H87.616Z" fill="white"/>
<path d="M148.8 22.08V4.992C148.8 4.65067 148.629 4.48 148.288 4.48H139.136C138.752 4.48 138.56 4.65067 138.56 4.992V23.36C138.56 24.8533 138.24 25.92 137.6 26.56C136.96 27.2 135.893 27.52 134.4 27.52H129.408C128.427 27.52 127.573 27.1573 126.848 26.432C126.123 25.7067 125.76 24.8533 125.76 23.872V21.44C125.76 21.0987 125.611 21.0347 125.312 21.248L110.055 32.1097C109.859 32.2497 109.632 32.3986 109.632 32.64C109.632 32.8814 109.859 33.0303 110.055 33.1703L125.312 44.032C125.611 44.2453 125.76 44.1813 125.76 43.84V41.408C125.76 40.4267 126.123 39.5733 126.848 38.848C127.573 38.1227 128.427 37.76 129.408 37.76H133.12C138.965 37.76 143.04 36.608 145.344 34.304C147.648 32 148.8 27.9253 148.8 22.08ZM148.992 0.639999C149.973 0.639999 150.827 1.00267 151.552 1.728C152.277 2.45333 152.64 3.30666 152.64 4.288V22.08C152.64 28.992 151.104 33.984 148.032 37.056C145.003 40.0853 140.032 41.6 133.12 41.6H130.176C129.792 41.6 129.6 41.792 129.6 42.176V48.192C129.6 48.96 129.259 49.5147 128.576 49.856C127.893 50.24 127.253 50.1973 126.656 49.728L105.664 34.752C104.939 34.24 104.576 33.536 104.576 32.64C104.576 31.744 104.939 31.04 105.664 30.528L126.656 15.552C127.253 15.0827 127.893 15.04 128.576 15.424C129.259 15.7653 129.6 16.32 129.6 17.088V23.104C129.6 23.488 129.792 23.68 130.176 23.68H134.08C134.507 23.68 134.72 23.4667 134.72 23.04V4.288C134.72 3.30666 135.083 2.45333 135.808 1.728C136.533 1.00267 137.387 0.639999 138.368 0.639999H148.992Z" fill="white"/>
<path d="M34.496 33.92C34.112 33.92 33.92 34.112 33.92 34.496V36.608C33.92 40.1493 35.264 41.92 37.952 41.92C39.0613 41.92 40 41.536 40.768 40.768C41.536 39.9573 41.92 38.9973 41.92 37.888C41.92 35.2427 40.1707 33.92 36.672 33.92H34.496ZM27.84 27.264V20.736C27.84 20.352 27.648 20.16 27.264 20.16H20.672C20.3307 20.16 20.16 20.352 20.16 20.736V27.264C20.16 27.648 20.3307 27.84 20.672 27.84H27.264C27.648 27.84 27.84 27.648 27.84 27.264ZM14.08 13.504V11.392C14.08 7.85067 12.736 6.08 10.048 6.08C8.93867 6.08 8 6.48533 7.232 7.296C6.464 8.064 6.08 9.00267 6.08 10.112C6.08 12.7573 7.82933 14.08 11.328 14.08H13.504C13.888 14.08 14.08 13.888 14.08 13.504ZM14.08 36.608V34.496C14.08 34.112 13.888 33.92 13.504 33.92H11.328C7.82933 33.92 6.08 35.2427 6.08 37.888C6.08 38.9973 6.464 39.9573 7.232 40.768C8 41.536 8.93867 41.92 10.048 41.92C12.736 41.92 14.08 40.1493 14.08 36.608ZM33.92 11.392V13.504C33.92 13.888 34.112 14.08 34.496 14.08H36.672C40.1707 14.08 41.92 12.7573 41.92 10.112C41.92 9.00267 41.536 8.064 40.768 7.296C40 6.48533 39.0613 6.08 37.952 6.08C35.264 6.08 33.92 7.85067 33.92 11.392ZM34.496 20.16C34.112 20.16 33.92 20.352 33.92 20.736V27.264C33.92 27.648 34.112 27.84 34.496 27.84H36.672C40.2133 27.84 42.9867 28.8 44.992 30.72C46.9973 32.5973 48 34.9867 48 37.888C48 40.6613 47.0187 43.0507 45.056 45.056C43.0933 47.0187 40.7253 48 37.952 48C35.0507 48 32.64 46.9973 30.72 44.992C28.8 42.944 27.84 40.1493 27.84 36.608V34.496C27.84 34.112 27.648 33.92 27.264 33.92H20.672C20.3307 33.92 20.16 34.112 20.16 34.496V36.608C20.16 40.1493 19.2 42.944 17.28 44.992C15.36 46.9973 12.9493 48 10.048 48C7.27467 48 4.90667 47.0187 2.944 45.056C0.981333 43.0507 0 40.6613 0 37.888C0 34.9867 1.00267 32.5973 3.008 30.72C5.01333 28.8 7.78667 27.84 11.328 27.84H13.504C13.888 27.84 14.08 27.648 14.08 27.264V20.736C14.08 20.352 13.888 20.16 13.504 20.16H11.328C7.78667 20.16 5.01333 19.2213 3.008 17.344C1.00267 15.424 0 13.0133 0 10.112C0 7.33867 0.981333 4.97067 2.944 3.008C4.90667 1.00267 7.27467 0 10.048 0C12.9493 0 15.36 1.024 17.28 3.072C19.2 5.07733 20.16 7.85067 20.16 11.392V13.504C20.16 13.888 20.3307 14.08 20.672 14.08H27.264C27.648 14.08 27.84 13.888 27.84 13.504V11.392C27.84 7.85067 28.8 5.07733 30.72 3.072C32.64 1.024 35.0507 0 37.952 0C40.7253 0 43.0933 1.00267 45.056 3.008C47.0187 4.97067 48 7.33867 48 10.112C48 13.0133 46.9973 15.424 44.992 17.344C42.9867 19.2213 40.2133 20.16 36.672 20.16H34.496Z" stroke="black"/>
<path d="M87.616 33.92C87.232 33.92 87.04 34.112 87.04 34.496V36.608C87.04 40.1493 88.384 41.92 91.072 41.92C92.1813 41.92 93.12 41.536 93.888 40.768C94.656 39.9573 95.04 38.9973 95.04 37.888C95.04 35.2427 93.2907 33.92 89.792 33.92H87.616ZM80.96 27.264V20.736C80.96 20.352 80.768 20.16 80.384 20.16H73.792C73.4507 20.16 73.28 20.352 73.28 20.736V27.264C73.28 27.648 73.4507 27.84 73.792 27.84H80.384C80.768 27.84 80.96 27.648 80.96 27.264ZM67.2 13.504V11.392C67.2 7.85067 65.856 6.08 63.168 6.08C62.0587 6.08 61.12 6.48533 60.352 7.296C59.584 8.064 59.2 9.00267 59.2 10.112C59.2 12.7573 60.9493 14.08 64.448 14.08H66.624C67.008 14.08 67.2 13.888 67.2 13.504ZM67.2 36.608V34.496C67.2 34.112 67.008 33.92 66.624 33.92H64.448C60.9493 33.92 59.2 35.2427 59.2 37.888C59.2 38.9973 59.584 39.9573 60.352 40.768C61.12 41.536 62.0587 41.92 63.168 41.92C65.856 41.92 67.2 40.1493 67.2 36.608ZM87.04 11.392V13.504C87.04 13.888 87.232 14.08 87.616 14.08H89.792C93.2907 14.08 95.04 12.7573 95.04 10.112C95.04 9.00267 94.656 8.064 93.888 7.296C93.12 6.48533 92.1813 6.08 91.072 6.08C88.384 6.08 87.04 7.85067 87.04 11.392ZM87.616 20.16C87.232 20.16 87.04 20.352 87.04 20.736V27.264C87.04 27.648 87.232 27.84 87.616 27.84H89.792C93.3333 27.84 96.1067 28.8 98.112 30.72C100.117 32.5973 101.12 34.9867 101.12 37.888C101.12 40.6613 100.139 43.0507 98.176 45.056C96.2133 47.0187 93.8453 48 91.072 48C88.1707 48 85.76 46.9973 83.84 44.992C81.92 42.944 80.96 40.1493 80.96 36.608V34.496C80.96 34.112 80.768 33.92 80.384 33.92H73.792C73.4507 33.92 73.28 34.112 73.28 34.496V36.608C73.28 40.1493 72.32 42.944 70.4 44.992C68.48 46.9973 66.0693 48 63.168 48C60.3947 48 58.0267 47.0187 56.064 45.056C54.1013 43.0507 53.12 40.6613 53.12 37.888C53.12 34.9867 54.1227 32.5973 56.128 30.72C58.1333 28.8 60.9067 27.84 64.448 27.84H66.624C67.008 27.84 67.2 27.648 67.2 27.264V20.736C67.2 20.352 67.008 20.16 66.624 20.16H64.448C60.9067 20.16 58.1333 19.2213 56.128 17.344C54.1227 15.424 53.12 13.0133 53.12 10.112C53.12 7.33867 54.1013 4.97067 56.064 3.008C58.0267 1.00267 60.3947 0 63.168 0C66.0693 0 68.48 1.024 70.4 3.072C72.32 5.07733 73.28 7.85067 73.28 11.392V13.504C73.28 13.888 73.4507 14.08 73.792 14.08H80.384C80.768 14.08 80.96 13.888 80.96 13.504V11.392C80.96 7.85067 81.92 5.07733 83.84 3.072C85.76 1.024 88.1707 0 91.072 0C93.8453 0 96.2133 1.00267 98.176 3.008C100.139 4.97067 101.12 7.33867 101.12 10.112C101.12 13.0133 100.117 15.424 98.112 17.344C96.1067 19.2213 93.3333 20.16 89.792 20.16H87.616Z" stroke="black"/>
<path d="M148.8 22.08V4.992C148.8 4.65067 148.629 4.48 148.288 4.48H139.136C138.752 4.48 138.56 4.65067 138.56 4.992V23.36C138.56 24.8533 138.24 25.92 137.6 26.56C136.96 27.2 135.893 27.52 134.4 27.52H129.408C128.427 27.52 127.573 27.1573 126.848 26.432C126.123 25.7067 125.76 24.8533 125.76 23.872V21.44C125.76 21.0987 125.611 21.0347 125.312 21.248L110.055 32.1097C109.859 32.2497 109.632 32.3986 109.632 32.64C109.632 32.8814 109.859 33.0303 110.055 33.1703L125.312 44.032C125.611 44.2453 125.76 44.1813 125.76 43.84V41.408C125.76 40.4267 126.123 39.5733 126.848 38.848C127.573 38.1227 128.427 37.76 129.408 37.76H133.12C138.965 37.76 143.04 36.608 145.344 34.304C147.648 32 148.8 27.9253 148.8 22.08ZM148.992 0.639999C149.973 0.639999 150.827 1.00267 151.552 1.728C152.277 2.45333 152.64 3.30666 152.64 4.288V22.08C152.64 28.992 151.104 33.984 148.032 37.056C145.003 40.0853 140.032 41.6 133.12 41.6H130.176C129.792 41.6 129.6 41.792 129.6 42.176V48.192C129.6 48.96 129.259 49.5147 128.576 49.856C127.893 50.24 127.253 50.1973 126.656 49.728L105.664 34.752C104.939 34.24 104.576 33.536 104.576 32.64C104.576 31.744 104.939 31.04 105.664 30.528L126.656 15.552C127.253 15.0827 127.893 15.04 128.576 15.424C129.259 15.7653 129.6 16.32 129.6 17.088V23.104C129.6 23.488 129.792 23.68 130.176 23.68H134.08C134.507 23.68 134.72 23.4667 134.72 23.04V4.288C134.72 3.30666 135.083 2.45333 135.808 1.728C136.533 1.00267 137.387 0.639999 138.368 0.639999H148.992Z" stroke="black"/>
</svg>
